# xmcd
#
# Track frame offsets: 
#        150
#        14914
#        28107
#        42420
#        56028
#        71967
#        87185
#        102737
#        119418
#        135759
#        150012
#        163825
#
# Disc length: 2424 seconds
#
# Revision: 0
# Processed by: cddbd v1.5.1PL0 Copyright (c) Steve Scherf et al.
# Submitted via: ExactAudioCopy v0.95b2
#
DISCID=a409760c
DTITLE=Ray Matterick - Life And Times Disc 2
DYEAR=2003
DGENRE=Crossover
TTITLE0=Linda Put The Coffee On
TTITLE1=Feelin' Kinda Lucky Tonight
TTITLE2=Northbound Plane
TTITLE3=I'd Be Your Man
TTITLE4=Holiday Bar And Grill Cafe
TTITLE5=Waiting So Long
TTITLE6=Goodbye Again
TTITLE7=Like A Midnight Rider
TTITLE8=Carnival Knowledge
TTITLE9=Long Thin Highway Line
TTITLE10=Lonley Heart Hotel
TTITLE11=Ride Away
EXTD=
EXTT0=
EXTT1=
EXTT2=
EXTT3=
EXTT4=
EXTT5=
EXTT6=
EXTT7=
EXTT8=
EXTT9=
EXTT10=
EXTT11=
PLAYORDER=
